<svg width="22" height="21" viewBox="0 0 22 21" fill="none" xmlns="http://www.w3.org/2000/svg">
<path d="M21.5529 12.9891V20.6162H17.1308V13.5002C17.1308 11.7135 16.4924 10.4933 14.8913 10.4933C13.6695 10.4933 12.9436 11.3148 12.6231 12.1102C12.5067 12.3945 12.4767 12.7892 12.4767 13.1879V20.6159H8.05431C8.05431 20.6159 8.11367 8.56376 8.05431 7.3162H12.477V9.20089C12.4681 9.21573 12.4556 9.23024 12.4476 9.24442H12.477V9.20089C13.0647 8.29663 14.1127 7.0039 16.4624 7.0039C19.3717 7.0039 21.5529 8.90475 21.5529 12.9891ZM3.42815 0.905273C1.91545 0.905273 0.925781 1.89824 0.925781 3.20285C0.925781 4.47976 1.88676 5.50142 3.37011 5.50142H3.3988C4.94118 5.50142 5.90018 4.47976 5.90018 3.20285C5.87083 1.89824 4.94118 0.905273 3.42815 0.905273ZM1.18862 20.6162H5.60932V7.3162H1.18862V20.6162Z" fill="#134A70"/>
</svg>
